<svg width="795" height="114" viewBox="0 0 795 114" fill="none" xmlns="http://www.w3.org/2000/svg">
<path d="M0.16 112L41.44 -7.62939e-06H60L100.96 112H83.04L73.44 84.64H27.68L18.08 112H0.16ZM32.48 71.2H68.64L50.56 20.16L32.48 71.2ZM143.5 113.92C133.9 113.92 126.327 110.933 120.78 104.96C115.34 98.9867 112.62 90.08 112.62 78.24V32.64H129.58V76.48C129.58 91.84 135.873 99.52 148.46 99.52C154.753 99.52 159.927 97.28 163.98 92.8C168.033 88.32 170.06 81.92 170.06 73.6V32.64H187.02V112H171.98L170.7 98.08C168.247 102.987 164.62 106.88 159.82 109.76C155.127 112.533 149.687 113.92 143.5 113.92ZM208.595 112V32.64H223.795L225.235 47.68C228.008 42.4533 231.848 38.3467 236.755 35.36C241.768 32.2667 247.795 30.72 254.835 30.72V48.48H250.195C245.502 48.48 241.288 49.28 237.555 50.88C233.928 52.3733 230.995 54.9867 228.755 58.72C226.622 62.3467 225.555 67.4133 225.555 73.92V112H208.595ZM304.309 113.92C296.735 113.92 289.909 112.213 283.829 108.8C277.855 105.28 273.109 100.427 269.589 94.24C266.069 87.9467 264.309 80.64 264.309 72.32C264.309 64 266.069 56.7467 269.589 50.56C273.215 44.2667 278.069 39.4133 284.149 36C290.229 32.48 297.002 30.72 304.469 30.72C312.042 30.72 318.815 32.48 324.789 36C330.869 39.4133 335.669 44.2667 339.189 50.56C342.815 56.7467 344.629 64 344.629 72.32C344.629 80.64 342.815 87.9467 339.189 94.24C335.669 100.427 330.869 105.28 324.789 108.8C318.709 112.213 311.882 113.92 304.309 113.92ZM304.309 99.36C308.362 99.36 312.095 98.3467 315.509 96.32C319.029 94.2933 321.855 91.3067 323.989 87.36C326.122 83.3067 327.189 78.2933 327.189 72.32C327.189 66.3467 326.122 61.3867 323.989 57.44C321.962 53.3867 319.189 50.3467 315.669 48.32C312.255 46.2933 308.522 45.28 304.469 45.28C300.415 45.28 296.629 46.2933 293.109 48.32C289.695 50.3467 286.922 53.3867 284.789 57.44C282.655 61.3867 281.589 66.3467 281.589 72.32C281.589 78.2933 282.655 83.3067 284.789 87.36C286.922 91.3067 289.695 94.2933 293.109 96.32C296.522 98.3467 300.255 99.36 304.309 99.36ZM362.97 112V32.64H378.17L379.61 47.68C382.383 42.4533 386.223 38.3467 391.13 35.36C396.143 32.2667 402.17 30.72 409.21 30.72V48.48H404.57C399.877 48.48 395.663 49.28 391.93 50.88C388.303 52.3733 385.37 54.9867 383.13 58.72C380.997 62.3467 379.93 67.4133 379.93 73.92V112H362.97ZM450.631 113.92C443.911 113.92 438.365 112.8 433.991 110.56C429.618 108.32 426.365 105.387 424.231 101.76C422.098 98.0267 421.031 93.9733 421.031 89.6C421.031 81.92 424.018 75.84 429.991 71.36C435.965 66.88 444.498 64.64 455.591 64.64H476.391V63.2C476.391 57.0133 474.685 52.3733 471.271 49.28C467.965 46.1867 463.645 44.64 458.311 44.64C453.618 44.64 449.511 45.8133 445.991 48.16C442.578 50.4 440.498 53.76 439.751 58.24H422.791C423.325 52.48 425.245 47.5733 428.551 43.52C431.965 39.36 436.231 36.2133 441.351 34.08C446.578 31.84 452.285 30.72 458.471 30.72C469.565 30.72 478.151 33.6533 484.231 39.52C490.311 45.28 493.351 53.1733 493.351 63.2V112H478.631L477.191 98.4C474.951 102.773 471.698 106.453 467.431 109.44C463.165 112.427 457.565 113.92 450.631 113.92ZM453.991 100.16C458.578 100.16 462.418 99.0933 465.511 96.96C468.711 94.72 471.165 91.7867 472.871 88.16C474.685 84.5333 475.805 80.5333 476.231 76.16H457.351C450.631 76.16 445.831 77.3333 442.951 79.68C440.178 82.0267 438.791 84.96 438.791 88.48C438.791 92.1067 440.125 94.9867 442.791 97.12C445.565 99.1467 449.298 100.16 453.991 100.16Z" fill="white"/>
<path d="M513.286 112V-7.62939e-06H551.526C564.646 -7.62939e-06 575.42 2.34666 583.846 7.04C592.38 11.6267 598.673 18.1333 602.726 26.56C606.886 34.88 608.966 44.6933 608.966 56C608.966 67.3067 606.886 77.1733 602.726 85.6C598.673 93.92 592.38 100.427 583.846 105.12C575.42 109.707 564.646 112 551.526 112H513.286ZM533.766 94.4H550.566C559.953 94.4 567.366 92.9067 572.806 89.92C578.246 86.8267 582.14 82.4533 584.486 76.8C586.833 71.04 588.006 64.1067 588.006 56C588.006 48 586.833 41.12 584.486 35.36C582.14 29.6 578.246 25.1733 572.806 22.08C567.366 18.9867 559.953 17.44 550.566 17.44H533.766V94.4ZM665.116 113.92C657.116 113.92 650.023 112.213 643.836 108.8C637.65 105.387 632.796 100.587 629.276 94.4C625.756 88.2133 623.996 81.0667 623.996 72.96C623.996 64.7467 625.703 57.44 629.116 51.04C632.636 44.64 637.436 39.68 643.516 36.16C649.703 32.5333 656.956 30.72 665.276 30.72C673.063 30.72 679.943 32.4267 685.916 35.84C691.89 39.2533 696.53 43.9467 699.836 49.92C703.25 55.7867 704.956 62.3467 704.956 69.6C704.956 70.7733 704.903 72 704.796 73.28C704.796 74.56 704.743 75.8933 704.636 77.28H644.316C644.743 83.4667 646.876 88.32 650.716 91.84C654.663 95.36 659.41 97.12 664.956 97.12C669.116 97.12 672.583 96.2133 675.356 94.4C678.236 92.48 680.37 90.0267 681.756 87.04H702.556C701.063 92.0533 698.556 96.64 695.036 100.8C691.623 104.853 687.356 108.053 682.236 110.4C677.223 112.747 671.516 113.92 665.116 113.92ZM665.276 47.36C660.263 47.36 655.836 48.8 651.996 51.68C648.156 54.4533 645.703 58.72 644.636 64.48H684.156C683.836 59.2533 681.916 55.0933 678.396 52C674.876 48.9067 670.503 47.36 665.276 47.36ZM740.496 112L711.376 32.64H732.816L752.976 92.64L773.136 32.64H794.576L765.296 112H740.496Z" fill="#8925D4"/>
</svg>
